<?xml version="1.0"?>
<svg xmlns="http://www.w3.org/2000/svg" id="Layer_1" data-name="Layer 1" viewBox="0 0 64 64"><title>Dusk Part 1</title><polygon points="59 29 35 29 35 5 29 5 29 29 5 29 5 35 29 35 29 59 35 59 35 35 59 35 59 29" style="fill:#72caaf;"/><path d="M9,29H55a3,3,0,0,1,3,3v0a0,0,0,0,1,0,0H6a0,0,0,0,1,0,0v0A3,3,0,0,1,9,29Z" transform="translate(64 61) rotate(180)" style="fill:#97e0bb;"/><rect x="30" y="6" width="5" height="23" style="fill:#97e0bb;"/><path d="M58,28H36V6a2,2,0,0,0-2-2H30a2,2,0,0,0-2,2V28H6a2,2,0,0,0-2,2v4a2,2,0,0,0,2,2H28V58a2,2,0,0,0,2,2h4a2,2,0,0,0,2-2V36H58a2,2,0,0,0,2-2V30A2,2,0,0,0,58,28Zm0,6H34V58H30V34H6V30H30V6h4V30H58Z" style="fill:#8d6c9f;"/><path d="M39,38a1,1,0,0,0-1,1v2a1,1,0,0,0,2,0V39A1,1,0,0,0,39,38Z" style="fill:#8d6c9f;"/><path d="M44,38a1,1,0,0,0-1,1v2a1,1,0,0,0,2,0V39A1,1,0,0,0,44,38Z" style="fill:#8d6c9f;"/><path d="M49,38a1,1,0,0,0-1,1v2a1,1,0,0,0,2,0V39A1,1,0,0,0,49,38Z" style="fill:#8d6c9f;"/><path d="M54,38a1,1,0,0,0-1,1v2a1,1,0,0,0,2,0V39A1,1,0,0,0,54,38Z" style="fill:#8d6c9f;"/><path d="M59,38a1,1,0,0,0-1,1v2a1,1,0,0,0,2,0V39A1,1,0,0,0,59,38Z" style="fill:#8d6c9f;"/><path d="M10,26a1,1,0,0,0,1-1V23a1,1,0,0,0-2,0v2A1,1,0,0,0,10,26Z" style="fill:#8d6c9f;"/><path d="M5,26a1,1,0,0,0,1-1V23a1,1,0,0,0-2,0v2A1,1,0,0,0,5,26Z" style="fill:#8d6c9f;"/><path d="M15,26a1,1,0,0,0,1-1V23a1,1,0,0,0-2,0v2A1,1,0,0,0,15,26Z" style="fill:#8d6c9f;"/><path d="M20,26a1,1,0,0,0,1-1V23a1,1,0,0,0-2,0v2A1,1,0,0,0,20,26Z" style="fill:#8d6c9f;"/><path d="M25,26a1,1,0,0,0,1-1V23a1,1,0,0,0-2,0v2A1,1,0,0,0,25,26Z" style="fill:#8d6c9f;"/></svg>
